<?xml version="1.0" standalone="no"?>
<!DOCTYPE svg PUBLIC "-//W3C//DTD SVG 20010904//EN"
 "http://www.w3.org/TR/2001/REC-SVG-20010904/DTD/svg10.dtd">
<svg version="1.0" xmlns="http://www.w3.org/2000/svg"
 width="1024.000000pt" height="1024.000000pt" viewBox="0 0 1024.000000 1024.000000"
 preserveAspectRatio="xMidYMid meet">

<g transform="translate(0.000000,1024.000000) scale(0.100000,-0.100000)"
fill="#000000" stroke="none">
<path d="M4685 8650 c-368 -73 -644 -387 -680 -772 l-7 -78 247 0 c277 0 301
-5 329 -65 20 -41 20 -78 2 -114 -29 -56 -29 -56 -310 -61 l-261 -5 0 -130 0
-130 255 -5 c173 -3 262 -9 276 -17 24 -14 54 -71 54 -103 0 -36 -28 -85 -59
-103 -25 -15 -61 -17 -275 -17 -189 0 -246 -3 -247 -12 -5 -49 -7 -190 -3
-220 l6 -37 260 -3 260 -3 24 -28 c32 -37 39 -71 25 -118 -8 -27 -23 -46 -44
-59 -29 -18 -52 -20 -279 -20 l-248 0 0 -55 c0 -131 56 -303 139 -427 86 -128
231 -254 356 -309 195 -86 473 -92 680 -14 302 113 511 394 541 730 l7 75
-242 0 c-268 0 -298 5 -325 59 -30 58 -15 119 36 151 31 18 51 20 281 20 l248
0 -3 133 -3 132 -252 5 -253 5 -31 31 c-56 56 -49 146 13 184 31 18 51 20 281
20 l248 0 -3 133 -3 132 -250 5 c-220 4 -254 7 -278 23 -68 45 -61 157 13 201
24 14 64 16 274 16 l246 0 0 34 c0 56 -28 197 -55 276 -38 112 -98 205 -194
301 -125 125 -262 200 -427 234 -78 16 -298 19 -369 5z"/>
<path d="M6589 7981 l-29 -29 0 -545 0 -544 -57 21 c-45 16 -82 21 -168 21
-100 0 -116 -3 -169 -28 -88 -41 -140 -88 -175 -159 -41 -81 -44 -186 -7 -263
31 -65 96 -127 171 -162 55 -26 70 -28 176 -28 113 0 116 1 191 38 91 44 146
102 192 197 l31 65 3 498 3 498 22 -6 c12 -4 63 -26 112 -50 163 -77 220 -150
219 -281 -1 -61 -6 -83 -37 -149 -21 -42 -37 -81 -37 -86 0 -22 42 -49 77 -49
31 0 44 7 83 49 87 93 130 205 131 342 1 132 -42 237 -134 326 -42 41 -214
166 -456 330 -49 34 -104 31 -142 -6z"/>
<path d="M3554 6751 c-44 -27 -54 -66 -54 -206 0 -364 140 -697 404 -960 158
-157 327 -264 527 -331 98 -33 229 -64 269 -64 19 0 20 -5 20 -205 l0 -205
-249 0 -249 0 -32 -26 c-83 -71 -78 -179 12 -234 32 -19 52 -20 668 -20 612 0
636 1 667 20 83 50 94 157 22 226 l-30 29 -260 3 -259 3 0 204 0 205 28 0 c39
0 216 44 295 74 242 92 478 270 635 481 45 60 162 274 162 296 0 4 -26 19 -57
34 -31 14 -79 39 -105 55 -27 17 -52 30 -56 30 -4 0 -31 -45 -61 -100 -187
-345 -505 -561 -885 -601 -229 -24 -511 48 -706 181 -154 104 -299 275 -381
445 -68 141 -99 269 -106 430 -6 160 -15 196 -54 229 -39 33 -117 36 -165 7z"/>
<path d="M1753 4173 c-10 -4 -13 -125 -13 -558 0 -495 2 -553 16 -559 26 -10
174 -7 194 4 17 9 19 23 16 173 l-2 162 46 57 c25 32 48 58 52 58 6 0 104
-140 173 -248 17 -26 56 -84 89 -130 l58 -83 126 3 c147 3 157 11 98 76 -20
22 -36 43 -36 46 0 4 -19 34 -42 68 -24 33 -54 79 -68 102 -14 23 -43 66 -66
96 -61 82 -164 237 -164 247 1 9 15 28 130 177 41 53 84 109 95 124 11 15 39
53 63 84 23 32 43 68 45 80 2 23 0 23 -105 26 -99 2 -108 1 -131 -20 -23 -23
-97 -119 -267 -351 -47 -63 -86 -114 -87 -113 -1 1 -3 103 -4 226 0 124 -5
233 -10 242 -8 15 -24 18 -102 17 -51 0 -98 -3 -104 -6z"/>
<path d="M5203 4172 c-10 -6 -13 -131 -13 -555 -1 -301 2 -551 5 -557 7 -11
183 -14 209 -4 14 5 16 34 16 220 l0 214 218 2 217 3 0 95 0 95 -217 3 -218 2
0 140 0 140 258 2 257 3 6 69 c3 38 3 83 0 100 l-7 31 -359 2 c-198 2 -366 -1
-372 -5z"/>
<path d="M6072 4168 c-16 -16 -18 -1069 -2 -1099 9 -17 22 -19 99 -19 63 0 92
4 100 14 8 9 10 165 9 562 l-3 549 -95 3 c-66 2 -99 -1 -108 -10z"/>
<path d="M2920 3888 c-108 -33 -189 -119 -190 -200 0 -28 -4 -27 162 -74 12
-4 22 7 37 41 30 68 104 95 189 69 57 -17 84 -51 90 -114 l4 -47 -122 -7
c-211 -12 -307 -43 -358 -118 -44 -64 -58 -126 -43 -192 29 -130 129 -204 277
-205 91 -1 159 20 211 64 l42 35 8 -42 9 -43 99 0 100 0 3 295 c3 355 -1 383
-66 452 -56 60 -76 71 -169 92 -95 21 -202 19 -283 -6z m290 -525 c0 -91 -54
-141 -159 -150 -103 -8 -163 50 -131 127 14 34 41 52 85 58 17 2 32 6 34 8 2
2 42 4 88 4 l83 0 0 -47z"/>
<path d="M3933 3885 c-29 -14 -65 -41 -80 -60 l-28 -35 -5 47 -5 48 -100 0
-100 0 0 -415 0 -415 85 -3 c142 -5 128 -33 132 266 3 238 5 260 24 297 30 57
105 95 189 95 l63 0 16 65 c30 119 20 135 -81 135 -41 0 -73 -7 -110 -25z"/>
<path d="M4435 3887 c-82 -25 -144 -79 -175 -153 -26 -61 -25 -72 8 -80 15 -3
56 -15 90 -25 35 -10 68 -17 72 -14 5 3 11 19 15 36 12 56 70 85 155 80 78 -6
120 -49 120 -123 l0 -48 -57 0 c-181 0 -329 -39 -392 -101 -52 -52 -64 -93
-59 -189 5 -87 21 -117 89 -171 56 -44 101 -58 190 -59 89 0 144 17 200 61 37
29 39 30 39 9 0 -52 14 -60 110 -60 66 0 92 4 104 15 13 14 15 55 12 313 -4
313 -9 351 -52 408 -83 109 -296 155 -469 101z m285 -535 c0 -37 -6 -66 -16
-81 -34 -47 -127 -72 -211 -55 -59 12 -83 101 -40 148 27 30 84 43 190 45 l77
1 0 -58z"/>
<path d="M6702 3886 c-114 -37 -186 -100 -237 -208 -68 -143 -68 -282 0 -418
39 -77 67 -109 132 -150 215 -137 517 -67 625 144 90 178 66 391 -60 528 -62
67 -88 83 -181 109 -90 26 -188 24 -279 -5z m182 -167 c110 -30 160 -107 161
-244 0 -150 -74 -245 -192 -245 -72 0 -107 16 -149 67 -84 103 -83 269 2 363
30 33 78 58 134 69 3 0 23 -4 44 -10z"/>
<path d="M7296 3881 c-3 -4 12 -59 34 -122 21 -63 48 -148 59 -189 64 -231
151 -495 167 -507 12 -8 50 -13 111 -13 111 0 110 -1 143 135 12 50 39 144 60
210 21 66 40 129 42 140 4 20 63 -142 72 -200 9 -52 80 -270 91 -277 18 -13
202 -9 212 5 10 12 90 245 97 283 7 34 36 136 76 259 67 214 79 263 65 275 -8
6 -51 10 -106 8 l-94 -3 -17 -65 c-10 -36 -41 -148 -69 -250 -29 -102 -55
-198 -59 -215 -6 -28 -8 -24 -27 40 -20 65 -59 217 -67 261 -4 22 -51 165 -68
207 -10 26 -12 27 -93 27 -63 0 -86 -4 -96 -16 -7 -9 -25 -61 -40 -117 -14
-56 -43 -165 -64 -242 -39 -147 -43 -164 -44 -179 -1 -5 -3 -7 -6 -4 -6 6 -51
158 -60 203 -8 39 -13 60 -15 60 -1 0 -3 10 -6 23 -2 13 -22 79 -45 147 l-40
125 -104 0 c-57 0 -106 -4 -109 -9z"/>
</g>
</svg>
